# xmcd CD database file
#
# Track frame offsets:
#	150
#	15061
#	27024
#	46039
#	60246
#	77761
#	95048
#	106363
#	120430
#
# Disc length: 1766 seconds
#
# Revision: 0
# Processed by: cddbd v1.5.2PL0 Copyright (c) Steve Scherf et al.
# Submitted via: CDex 1.70beta2
#
DISCID=5606e409
DTITLE=Danny Everhart - On Its Way
DYEAR=2005
DGENRE=Country
TTITLE0=Its On Its Way
TTITLE1=I'm Sorry
TTITLE2=She Doesn't Love Me Like That
TTITLE3=Through The Pain
TTITLE4=Ocean Front Rum
TTITLE5=I Hope She Knows
TTITLE6=Doin All The Wrong Things Right
TTITLE7=Big Shoes
TTITLE8=This One's For Hank
EXTD=YEAR: 2005
EXTT0=
EXTT1=
EXTT2=
EXTT3=
EXTT4=
EXTT5=
EXTT6=
EXTT7=
EXTT8=
PLAYORDER=
